<svg xmlns="http://www.w3.org/2000/svg" xmlns:svg="http://www.w3.org/2000/svg" id="svg8" width="1474.225" height="528.084" version="1.1" viewBox="0 0 390.055 139.722"><defs id="defs2"><rect id="rect3054" width="38.825" height="5.912" x="-108.433" y="116.049"/><marker style="overflow:visible" id="marker7096" orient="auto" refX="0" refY="0"><path style="fill:#00b200;fill-opacity:1;fill-rule:evenodd;stroke:#00b200;stroke-width:1pt;stroke-opacity:1" id="path7094" d="M 0,0 5,-5 -12.5,0 5,5 Z" transform="matrix(-0.2,0,0,-0.2,-1.2,0)"/></marker><marker style="overflow:visible" id="marker5628" orient="auto" refX="0" refY="0"><path style="fill:#000081;fill-opacity:1;fill-rule:evenodd;stroke:#000081;stroke-width:1pt;stroke-opacity:1" id="path5626" d="M 0,0 5,-5 -12.5,0 5,5 Z" transform="matrix(-0.2,0,0,-0.2,-1.2,0)"/></marker><marker style="overflow:visible" id="marker5618" orient="auto" refX="0" refY="0"><path style="fill:#000081;fill-opacity:1;fill-rule:evenodd;stroke:#000081;stroke-width:1pt;stroke-opacity:1" id="path5616" d="M 0,0 5,-5 -12.5,0 5,5 Z" transform="matrix(0.2,0,0,0.2,1.2,0)"/></marker><marker style="overflow:visible" id="marker4826" orient="auto" refX="0" refY="0"><path style="fill:#206120;fill-opacity:1;fill-rule:evenodd;stroke:#206120;stroke-width:1pt;stroke-opacity:1" id="path4824" d="M 0,0 5,-5 -12.5,0 5,5 Z" transform="matrix(-0.2,0,0,-0.2,-1.2,0)"/></marker><marker id="marker4400" orient="auto" refX="0" refY="0" style="overflow:visible"><path id="path4398" d="M 0,0 5,-5 -12.5,0 5,5 Z" transform="matrix(-0.2,0,0,-0.2,-1.2,0)" style="fill:#00b200;fill-opacity:1;fill-rule:evenodd;stroke:#00b200;stroke-width:1pt;stroke-opacity:1"/></marker><marker style="overflow:visible" id="marker4390" orient="auto" refX="0" refY="0"><path style="fill:#b7943d;fill-opacity:1;fill-rule:evenodd;stroke:#b7943d;stroke-width:1pt;stroke-opacity:1" id="path4388" d="M 0,0 5,-5 -12.5,0 5,5 Z" transform="matrix(-0.2,0,0,-0.2,-1.2,0)"/></marker><marker style="overflow:visible" id="marker2037" orient="auto" refX="0" refY="0"><path style="fill:#f4ae00;fill-opacity:1;fill-rule:evenodd;stroke:#ffc433;stroke-width:1pt;stroke-opacity:1" id="path2035" d="M 0,0 5,-5 -12.5,0 5,5 Z" transform="matrix(-0.2,0,0,-0.2,-1.2,0)"/></marker><rect id="rect1296" width="16.468" height="8.876" x="-2.967" y="100.873"/><marker style="overflow:visible" id="Arrow1Lend" orient="auto" refX="0" refY="0"><path style="fill:#000;fill-opacity:1;fill-rule:evenodd;stroke:#000;stroke-width:1pt;stroke-opacity:1" id="path915" d="M 0,0 5,-5 -12.5,0 5,5 Z" transform="matrix(-0.8,0,0,-0.8,-10,0)"/></marker><marker style="overflow:visible" id="Arrow1Lstart" orient="auto" refX="0" refY="0"><path style="fill:#000;fill-opacity:1;fill-rule:evenodd;stroke:#000;stroke-width:1pt;stroke-opacity:1" id="path912" d="M 0,0 5,-5 -12.5,0 5,5 Z" transform="matrix(0.8,0,0,0.8,10,0)"/></marker></defs><metadata id="metadata5"/><g id="layer1" transform="translate(143.44857,-67.864137)"><path id="path1976" d="m 175.57699,126.11316 h 65.38081 c 1.14406,0 2.06509,0.92103 2.06509,2.06509 v 15.54342 c 0,1.14406 -0.92103,2.06509 -2.06509,2.06509 h -65.38081 c -1.14406,0 -2.06509,-0.92103 -2.06509,-2.06509 v -15.54342 c 0,-1.14406 0.92103,-2.06509 2.06509,-2.06509 z" style="opacity:1;fill:#ddb9b9;fill-opacity:.796078;stroke:none;stroke-width:1.2;stroke-linecap:round;stroke-linejoin:round;stroke-miterlimit:4;stroke-dasharray:1.2,2.4;stroke-dashoffset:0;stroke-opacity:.497957"/><path id="path3044" d="M 172.89254,70.114137 V 205.33633" style="fill:none;stroke:gray;stroke-width:.5;stroke-linecap:round;stroke-linejoin:miter;stroke-miterlimit:4;stroke-dasharray:none;stroke-opacity:1"/><path style="opacity:1;fill:#ddb9b9;fill-opacity:.796609;stroke:none;stroke-width:1.2;stroke-linecap:round;stroke-linejoin:round;stroke-miterlimit:4;stroke-dasharray:1.2,2.4;stroke-dashoffset:0;stroke-opacity:.497957" id="rect5208" d="M 55.143494,98.892926 H 240.95778 c 1.14406,0 2.06509,0.921034 2.06509,2.065094 v 15.54342 c 0,1.14406 -0.92103,2.06509 -2.06509,2.06509 H 55.143494 c -1.14406,0 -2.06509,-0.92103 -2.06509,-2.06509 v -15.54342 c 0,-1.14406 0.92103,-2.065094 2.06509,-2.065094 z"/><path style="opacity:.25;fill:navy;fill-opacity:.4;stroke:none;stroke-width:1.2;stroke-linecap:round;stroke-linejoin:round;stroke-miterlimit:4;stroke-dasharray:1.2,2.4;stroke-dashoffset:0;stroke-opacity:.497957" id="rect4618" d="M -60.569299,98.727824 H 50.002364 c 1.14406,0 2.06509,0.92103 2.06509,2.065086 v 15.70853 c 0,1.14406 -0.92103,2.06509 -2.06509,2.06509 H -60.569299 c -1.14406,0 -2.06509,-0.92103 -2.06509,-2.06509 v -15.70853 c 0,-1.144056 0.92103,-2.065086 2.06509,-2.065086 z"/><text style="font-style:normal;font-variant:normal;font-weight:700;font-stretch:normal;font-size:7.76111px;line-height:1.25;font-family:sans-serif;-inkscape-font-specification:sans-serif;letter-spacing:0;word-spacing:0;fill:#000;fill-opacity:1;stroke-width:.105503" id="text1931" x="177.693" y="88.416" xml:space="preserve"><tspan id="tspan1929" x="177.693" y="88.416" style="fill:#000;stroke-width:.105503">Value Storage</tspan></text><text id="text1935" x="77.627" y="78.751" xml:space="preserve" style="font-style:normal;font-variant:normal;font-weight:700;font-stretch:normal;font-size:7.76111px;line-height:1.25;font-family:sans-serif;-inkscape-font-specification:sans-serif;letter-spacing:0;word-spacing:0;fill:#000;fill-opacity:1;stroke-width:.105503"><tspan style="fill:#000;stroke-width:.105503" id="tspan1933" x="77.627" y="78.751">Parameters and</tspan><tspan style="fill:#000;stroke-width:.105503" id="tspan3040" x="77.627" y="88.452">Storage options</tspan></text><text id="text1939" x="-41.095" y="78.751" xml:space="preserve" style="font-style:normal;font-variant:normal;font-weight:700;font-stretch:normal;font-size:7.72103px;line-height:1.25;font-family:sans-serif;-inkscape-font-specification:sans-serif;letter-spacing:0;word-spacing:0;fill:#000;fill-opacity:1;stroke-width:.105503"><tspan style="font-size:7.76111px;fill:#000;stroke-width:.105503" id="tspan3034" x="-41.095" y="78.751">Value Space and</tspan><tspan style="font-size:7.76111px;fill:#000;stroke-width:.105503" id="tspan3038" x="-41.095" y="88.452">Behaviour</tspan></text><text style="font-size:11.263px;line-height:1.25;font-family:sans-serif;-inkscape-font-specification:sans-serif;letter-spacing:0;word-spacing:0;fill:#000081;fill-opacity:1;stroke-width:.264583" id="text1968" x="-19.192" y="111.209" xml:space="preserve"><tspan id="tspan1965" x="-19.192" y="111.209" style="font-style:normal;font-variant:normal;font-weight:600;font-stretch:normal;font-family:'Fira Code';-inkscape-font-specification:'Fira Code Semi-Bold';fill:#000081;fill-opacity:1;stroke-width:.264583">type</tspan></text><text id="text1972" x="120.09" y="113.244" xml:space="preserve" style="font-size:11.263px;line-height:1.25;font-family:sans-serif;-inkscape-font-specification:sans-serif;letter-spacing:0;word-spacing:0;fill:maroon;fill-opacity:.976587;stroke-width:.265;stroke-miterlimit:4;stroke-dasharray:none"><tspan style="font-style:normal;font-variant:normal;font-weight:600;font-stretch:normal;font-family:'Fira Code';-inkscape-font-specification:'Fira Code Semi-Bold';fill:maroon;fill-opacity:.976587;stroke-width:.265;stroke-miterlimit:4;stroke-dasharray:none" id="tspan1970" x="120.09" y="113.244">instance</tspan></text><path id="path1974" d="m -60.569299,125.94806 h 72.698771 c 1.14406,0 2.06509,0.92103 2.06509,2.06508 v 15.70853 c 0,1.14406 -0.92103,2.06509 -2.06509,2.06509 h -72.698771 c -1.14406,0 -2.06509,-0.92103 -2.06509,-2.06509 v -15.70853 c 0,-1.14405 0.92103,-2.06508 2.06509,-2.06508 z" style="opacity:.25;fill:navy;fill-opacity:.4;stroke:none;stroke-width:1.2;stroke-linecap:round;stroke-linejoin:round;stroke-miterlimit:4;stroke-dasharray:1.2,2.4;stroke-dashoffset:0;stroke-opacity:.497957"/><text id="text1980" x="-34.513" y="139.861" xml:space="preserve" style="font-size:11.263px;line-height:1.25;font-family:sans-serif;-inkscape-font-specification:sans-serif;letter-spacing:0;word-spacing:0;fill:#000081;fill-opacity:1;stroke-width:.264583"><tspan style="font-style:normal;font-variant:normal;font-weight:600;font-stretch:normal;font-family:'Fira Code';-inkscape-font-specification:'Fira Code Semi-Bold';fill:#000081;fill-opacity:1;stroke-width:.264583" id="tspan1978" x="-34.513" y="139.861">ABC</tspan></text><text style="font-size:11.263px;line-height:1.25;font-family:sans-serif;-inkscape-font-specification:sans-serif;letter-spacing:0;word-spacing:0;fill:#830000;fill-opacity:1;stroke-width:.264583" id="text1984" x="180.306" y="140.464" xml:space="preserve"><tspan id="tspan1982" x="180.306" y="140.464" style="font-style:normal;font-variant:normal;font-weight:600;font-stretch:normal;font-family:'Fira Code';-inkscape-font-specification:'Fira Code Semi-Bold';fill:#830000;fill-opacity:1;stroke-width:.264583">instance</tspan></text><path style="opacity:.25;fill:navy;fill-opacity:.4;stroke:none;stroke-width:1.2;stroke-linecap:round;stroke-linejoin:round;stroke-miterlimit:4;stroke-dasharray:1.2,2.4;stroke-dashoffset:0;stroke-opacity:.497957" id="path1986" d="M 17.347598,126.00309 H 170.2081 c 1.14406,0 2.06509,0.92103 2.06509,2.06508 v 15.70853 c 0,1.14406 -0.92103,2.06509 -2.06509,2.06509 H 17.347598 c -1.14406,0 -2.06509,-0.92103 -2.06509,-2.06509 v -15.70853 c 0,-1.14405 0.92103,-2.06508 2.06509,-2.06508 z"/><text style="font-size:11.263px;line-height:1.25;font-family:sans-serif;-inkscape-font-specification:sans-serif;letter-spacing:0;word-spacing:0;fill:#000081;fill-opacity:1;stroke-width:.264583" id="text1990" x="79.87" y="138.484" xml:space="preserve"><tspan id="tspan1988" x="79.87" y="138.484" style="font-style:normal;font-variant:normal;font-weight:600;font-stretch:normal;font-family:'Fira Code';-inkscape-font-specification:'Fira Code Semi-Bold';fill:#000081;fill-opacity:1;stroke-width:.264583">type</tspan></text><path id="path1992" d="M -60.569299,153.16829 H 49.987465 c 1.14406,0 2.06509,0.92103 2.06509,2.06508 v 15.70853 c 0,1.14406 -0.92103,2.06509 -2.06509,2.06509 H -60.569299 c -1.14406,0 -2.06509,-0.92103 -2.06509,-2.06509 v -15.70853 c 0,-1.14405 0.92103,-2.06508 2.06509,-2.06508 z" style="opacity:.25;fill:navy;fill-opacity:.4;stroke:none;stroke-width:1.2;stroke-linecap:round;stroke-linejoin:round;stroke-miterlimit:4;stroke-dasharray:1.2,2.4;stroke-dashoffset:0;stroke-opacity:.497957"/><text id="text1998" x="-22.653" y="165.82" xml:space="preserve" style="font-size:11.263px;line-height:1.25;font-family:sans-serif;-inkscape-font-specification:sans-serif;letter-spacing:0;word-spacing:0;fill:#000081;fill-opacity:1;stroke-width:.264583"><tspan style="font-style:normal;font-variant:normal;font-weight:600;font-stretch:normal;font-family:'Fira Code';-inkscape-font-specification:'Fira Code Semi-Bold';fill:#000081;fill-opacity:1;stroke-width:.264583" id="tspan1996" x="-22.653" y="165.82">DType</tspan></text><path style="opacity:.25;fill:navy;fill-opacity:.4;stroke:none;stroke-width:1.2;stroke-linecap:round;stroke-linejoin:round;stroke-miterlimit:4;stroke-dasharray:1.2,2.4;stroke-dashoffset:0;stroke-opacity:.497957" id="path2004" d="m -60.569299,180.38852 h 72.698771 c 1.14406,0 2.06509,0.92103 2.06509,2.06508 v 15.70853 c 0,1.14406 -0.92103,2.06509 -2.06509,2.06509 h -72.698771 c -1.14406,0 -2.06509,-0.92103 -2.06509,-2.06509 V 182.4536 c 0,-1.14405 0.92103,-2.06508 2.06509,-2.06508 z"/><path style="opacity:1;fill:#ddb9b9;fill-opacity:.796078;stroke:none;stroke-width:1.2;stroke-linecap:round;stroke-linejoin:round;stroke-miterlimit:4;stroke-dasharray:1.2,2.4;stroke-dashoffset:0;stroke-opacity:.497957" id="path2006" d="m 175.57697,180.55362 h 65.38081 c 1.14406,0 2.06509,0.92103 2.06509,2.06509 v 15.54342 c 0,1.14406 -0.92103,2.06509 -2.06509,2.06509 h -65.38081 c -1.14406,0 -2.06509,-0.92103 -2.06509,-2.06509 v -15.54342 c 0,-1.14406 0.92103,-2.06509 2.06509,-2.06509 z"/><text style="font-size:11.263px;line-height:1.25;font-family:sans-serif;-inkscape-font-specification:sans-serif;letter-spacing:0;word-spacing:0;fill:#000081;fill-opacity:1;stroke-width:.264583" id="text2010" x="-59.011" y="193.407" xml:space="preserve"><tspan id="tspan2008" x="-59.011" y="193.407" style="font-style:normal;font-variant:normal;font-weight:600;font-stretch:normal;font-family:'Fira Code';-inkscape-font-specification:'Fira Code Semi-Bold';fill:#000081;fill-opacity:1;stroke-width:.264583">base dtype</tspan></text><text id="text2014" x="184.038" y="194.584" xml:space="preserve" style="font-size:11.263px;line-height:1.25;font-family:sans-serif;-inkscape-font-specification:sans-serif;letter-spacing:0;word-spacing:0;fill:maroon;fill-opacity:.8;stroke-width:.264583"><tspan style="font-style:normal;font-variant:normal;font-weight:600;font-stretch:normal;font-family:'Fira Code';-inkscape-font-specification:'Fira Code Semi-Bold';fill:maroon;fill-opacity:.8;stroke-width:.264583" id="tspan2012" x="184.038" y="194.584">element</tspan></text><path id="path2016" d="M 17.463123,180.38852 H 170.32495 c 1.14406,0 2.06509,0.92103 2.06509,2.06508 v 15.70853 c 0,1.14406 -0.92103,2.06509 -2.06509,2.06509 H 17.463123 c -1.14406,0 -2.06509,-0.92103 -2.06509,-2.06509 V 182.4536 c 0,-1.14405 0.92103,-2.06508 2.06509,-2.06508 z" style="opacity:.25;fill:#000081;fill-opacity:.4;stroke:none;stroke-width:1.2;stroke-linecap:round;stroke-linejoin:round;stroke-miterlimit:4;stroke-dasharray:1.2,2.4;stroke-dashoffset:0;stroke-opacity:.497957"/><text id="text2020" x="76.607" y="193.407" xml:space="preserve" style="font-size:11.263px;line-height:1.25;font-family:sans-serif;-inkscape-font-specification:sans-serif;letter-spacing:0;word-spacing:0;fill:#000081;fill-opacity:1;stroke-width:.264583"><tspan style="font-style:normal;font-variant:normal;font-weight:600;font-stretch:normal;font-family:'Fira Code';-inkscape-font-specification:'Fira Code Semi-Bold';fill:#000081;fill-opacity:1;stroke-width:.264583" id="tspan2018" x="76.607" y="193.407">dtype</tspan></text><path id="path2022" d="m 175.57697,153.33338 h 65.38081 c 1.14406,0 2.06509,0.92103 2.06509,2.06509 v 15.54342 c 0,1.14406 -0.92103,2.06509 -2.06509,2.06509 h -65.38081 c -1.14406,0 -2.06509,-0.92103 -2.06509,-2.06509 v -15.54342 c 0,-1.14406 0.92103,-2.06509 2.06509,-2.06509 z" style="opacity:1;fill:#ddb9b9;fill-opacity:.796078;stroke:none;stroke-width:1.2;stroke-linecap:round;stroke-linejoin:round;stroke-miterlimit:4;stroke-dasharray:1.2,2.4;stroke-dashoffset:0;stroke-opacity:.497957"/><text style="font-size:11.263px;line-height:1.25;font-family:sans-serif;-inkscape-font-specification:sans-serif;letter-spacing:0;word-spacing:0;fill:maroon;fill-opacity:.8;stroke-width:.264583" id="text2026" x="184.038" y="167.363" xml:space="preserve"><tspan id="tspan2024" x="184.038" y="167.363" style="font-style:normal;font-variant:normal;font-weight:600;font-stretch:normal;font-family:'Fira Code';-inkscape-font-specification:'Fira Code Semi-Bold';fill:maroon;fill-opacity:.8;stroke-width:.264583">element</tspan></text><path style="opacity:.25;fill:#d99b00;fill-opacity:1;stroke:none;stroke-width:1.2;stroke-linecap:round;stroke-linejoin:round;stroke-miterlimit:4;stroke-dasharray:1.2,2.4;stroke-dashoffset:0;stroke-opacity:.497957" id="path2031" d="M 55.175507,153.27835 H 170.22016 c 1.14406,0 2.06509,0.92103 2.06509,2.06509 v 15.54342 c 0,1.14406 -0.92103,2.06509 -2.06509,2.06509 H 55.175507 c -1.14406,0 -2.06509,-0.92103 -2.06509,-2.06509 v -15.54342 c 0,-1.14406 0.92103,-2.06509 2.06509,-2.06509 z"/><text id="text2035" x="95.411" y="166.214" xml:space="preserve" style="font-size:11.263px;line-height:1.25;font-family:sans-serif;-inkscape-font-specification:sans-serif;letter-spacing:0;word-spacing:0;fill:#b27d00;fill-opacity:1;stroke-width:.264583"><tspan style="font-style:normal;font-variant:normal;font-weight:600;font-stretch:normal;font-family:'Fira Code';-inkscape-font-specification:'Fira Code Semi-Bold';fill:#b27d00;fill-opacity:1;stroke-width:.264583" id="tspan2033" x="95.411" y="166.214">dtype</tspan></text><path style="fill:none;stroke:gray;stroke-width:.5;stroke-linecap:round;stroke-linejoin:miter;stroke-miterlimit:4;stroke-dasharray:none;stroke-opacity:1" id="path3042" d="M 52.572927,70.114137 V 205.33633"/><text style="font-style:normal;font-variant:normal;font-weight:700;font-stretch:normal;font-size:7.72103px;line-height:1.25;font-family:sans-serif;-inkscape-font-specification:sans-serif;letter-spacing:0;word-spacing:0;fill:#000;fill-opacity:1;stroke-width:.105503" id="text3050" x="-122.186" y="110.758" xml:space="preserve"><tspan id="tspan3048" x="-122.186" y="110.758" style="font-size:7.76111px;fill:#000;stroke-width:.105503">Python type</tspan></text><text id="text3062" x="-122.186" y="133.91" xml:space="preserve" style="font-style:normal;font-variant:normal;font-weight:700;font-stretch:normal;font-size:7.72103px;line-height:1.25;font-family:sans-serif;-inkscape-font-specification:sans-serif;letter-spacing:0;word-spacing:0;fill:#000;fill-opacity:1;stroke-width:.105503"><tspan style="font-size:7.76111px;fill:#000;stroke-width:.105503" id="tspan3060" x="-122.186" y="133.91">Python type</tspan><tspan style="font-size:7.76111px;fill:#000;stroke-width:.105503" id="tspan3064" x="-122.186" y="143.611">with ABC</tspan></text><text style="font-style:normal;font-variant:normal;font-weight:700;font-stretch:normal;font-size:7.72103px;line-height:1.25;font-family:sans-serif;-inkscape-font-specification:sans-serif;letter-spacing:0;word-spacing:0;fill:#000;fill-opacity:1;stroke-width:.105503" id="text3070" x="-140.577" y="165.229" xml:space="preserve"><tspan id="tspan3068" x="-140.577" y="165.229" style="font-size:7.76111px;fill:#000;stroke-width:.105503">NEP 41 Proposal</tspan></text><text id="text3076" x="-117.836" y="193.201" xml:space="preserve" style="font-style:normal;font-variant:normal;font-weight:700;font-stretch:normal;font-size:7.72103px;line-height:1.25;font-family:sans-serif;-inkscape-font-specification:sans-serif;letter-spacing:0;word-spacing:0;fill:#000;fill-opacity:1;stroke-width:.105503"><tspan style="font-size:7.76111px;fill:#000;stroke-width:.105503" id="tspan3074" x="-117.836" y="193.201">Alternative</tspan></text><path id="path960" d="M 244.3569,149.56007 H -141.19857" style="fill:none;stroke:gray;stroke-width:.5;stroke-linecap:round;stroke-linejoin:miter;stroke-miterlimit:4;stroke-dasharray:none;stroke-opacity:1"/></g></svg>